<?xml version="1.0" encoding="utf-8"?>
<!-- Generator: Adobe Illustrator 27.5.0, SVG Export Plug-In . SVG Version: 6.00 Build 0)  -->
<svg version="1.1" id="Layer_1" xmlns="http://www.w3.org/2000/svg" xmlns:xlink="http://www.w3.org/1999/xlink" x="0px" y="0px"
	 viewBox="0 0 7000 7000" style="enable-background:new 0 0 7000 7000;" xml:space="preserve">
<rect style="fill:none;" width="7000" height="7000"/>
<g>
	<path d="M5411.411,5304.89V2616.666H1588.37v185.293h-205.867V2410.8h4234.774v102.933V5304.89
		c0,112.884-46.121,215.413-120.415,289.637c-74.225,74.292-176.754,120.414-289.638,120.414H1792.487
		c-112.815,0-215.344-46.122-289.638-120.414c-74.225-74.225-120.346-176.754-120.346-289.637v-680.325h205.867v680.325
		c0,56.004,22.993,107.035,60.04,144.08c37.044,37.045,88.075,60.039,144.08,60.039h3414.738
		c56.071,0,107.034-22.994,144.081-60.039c37.043-37.045,60.105-88.074,60.105-144.08H5411.411z M1588.37,3171.469v557.424h-205.867
		v-557.425L1588.37,3171.469L1588.37,3171.469z"/>
	<path d="M1588.37,2410.8h3823.041v-715.287c0-56.005-23.062-107.034-60.105-144.079s-88.006-60.039-144.08-60.039H1792.487
		c-56.005,0-107.034,22.993-144.08,60.039c-37.043,37.045-60.04,88.074-60.04,144.079V2410.8H1588.37z M1485.302,4515.245
		c57.082,0,103.337,46.256,103.337,103.404c0,57.08-46.255,103.336-103.337,103.336c-57.148,0-103.403-46.256-103.403-103.336
		C1381.899,4561.501,1428.154,4515.245,1485.302,4515.245z M1485.302,2694.387c57.082,0,103.337,46.256,103.337,103.404
		c0,57.08-46.255,103.336-103.337,103.336c-57.148,0-103.403-46.256-103.403-103.336
		C1381.899,2740.643,1428.154,2694.387,1485.302,2694.387z M1485.302,3625.557c57.082,0,103.337,46.256,103.337,103.336
		c0,57.147-46.255,103.404-103.337,103.404c-57.148,0-103.403-46.256-103.403-103.404
		C1381.899,3671.813,1428.154,3625.557,1485.302,3625.557z M1485.302,3071.494c57.082,0,103.337,46.256,103.337,103.404
		c0,57.08-46.255,103.336-103.337,103.336c-57.148,0-103.403-46.256-103.403-103.336
		C1381.899,3117.75,1428.154,3071.494,1485.302,3071.494z M5514.344,2616.666H1382.503v-921.152
		c0-112.816,46.121-215.346,120.346-289.638c74.291-74.292,176.82-120.346,289.638-120.346h3414.738
		c112.883,0,215.413,46.054,289.638,120.346c74.291,74.292,120.415,176.821,120.415,289.638v921.152H5514.344z"/>
	<path style="fill-rule:evenodd;clip-rule:evenodd;fill:#FFFFFF;" d="M2248.864,3230.902h357.409
		c48.071,0,87.402,39.264,87.402,87.335v357.475c0,48.072-39.332,87.335-87.402,87.335h-357.409
		c-48.071,0-87.402-39.264-87.402-87.335v-357.475C2161.461,3270.165,2200.793,3230.902,2248.864,3230.902z"/>
	<path d="M2248.864,3127.969h357.409c52.44,0,100.041,21.38,134.465,55.803c34.49,34.423,55.871,82.024,55.871,134.465v357.475
		c0,51.971-21.381,99.437-55.871,134.062l-0.404,0.403c-34.624,34.49-82.091,55.803-134.061,55.803h-357.409
		c-52.44,0-100.11-21.38-134.531-55.803c-34.424-34.423-55.802-82.024-55.802-134.465v-357.475
		c0-52.172,21.381-99.638,55.802-134.062l0.404-0.403c34.424-34.423,81.89-55.803,134.13-55.803H2248.864z M2590.741,3333.835
		h-326.347v326.28h326.347V3333.835z"/>
	<path style="fill-rule:evenodd;clip-rule:evenodd;fill:#FFFFFF;" d="M3321.153,3230.902h357.475
		c48.071,0,87.336,39.264,87.336,87.335v357.475c0,48.072-39.263,87.335-87.336,87.335h-357.475
		c-48.071,0-87.336-39.264-87.336-87.335v-357.475C3233.816,3270.165,3273.079,3230.902,3321.153,3230.902z"/>
	<path d="M3321.153,3127.969h357.475c52.44,0,100.041,21.38,134.465,55.803c34.424,34.423,55.802,82.024,55.802,134.465v357.475
		c0,51.971-21.381,99.437-55.802,134.062l-0.404,0.403c-34.624,34.49-82.091,55.803-134.061,55.803h-357.475
		c-52.44,0-100.041-21.38-134.465-55.803s-55.871-82.024-55.871-134.465v-357.475c0-52.172,21.447-99.638,55.871-134.062
		l0.404-0.403C3221.516,3149.349,3268.982,3127.969,3321.153,3127.969z M3663.031,3333.835h-326.278v326.28h326.278V3333.835z"/>
	<path style="fill-rule:evenodd;clip-rule:evenodd;fill:#FFFFFF;" d="M4393.511,3230.902h357.409
		c48.07,0,87.402,39.264,87.402,87.335v357.475c0,48.072-39.332,87.335-87.402,87.335h-357.409
		c-48.07,0-87.402-39.264-87.402-87.335v-357.475C4306.109,3270.165,4345.441,3230.902,4393.511,3230.902z"/>
	<path d="M4393.511,3127.969h357.409c52.44,0,100.041,21.38,134.531,55.803c34.424,34.423,55.801,82.024,55.801,134.465v357.475
		c0,51.971-21.381,99.437-55.801,134.062l-0.404,0.403c-34.693,34.49-82.16,55.803-134.13,55.803h-357.409
		c-52.44,0-100.041-21.38-134.53-55.803c-34.424-34.423-55.802-82.024-55.802-134.465v-357.475
		c0-52.172,21.381-99.638,55.802-134.062l0.404-0.403C4293.871,3149.349,4341.337,3127.969,4393.511,3127.969z M4735.389,3333.835
		h-326.347v326.28h326.347V3333.835z"/>
	<path style="fill-rule:evenodd;clip-rule:evenodd;fill:#FFFFFF;" d="M2248.864,4152.323h357.409
		c48.071,0,87.402,39.263,87.402,87.335v357.475c0,48.004-39.332,87.335-87.402,87.335h-357.409
		c-48.071,0-87.402-39.331-87.402-87.335v-357.475C2161.461,4191.586,2200.793,4152.323,2248.864,4152.323z"/>
	<path d="M2248.864,4049.323h357.409c52.44,0,100.041,21.447,134.465,55.87c34.49,34.423,55.871,82.023,55.871,134.465v357.475
		c0,51.971-21.381,99.438-55.871,134.062l-0.404,0.404c-34.624,34.423-82.091,55.803-134.061,55.803h-357.409
		c-52.44,0-100.11-21.38-134.531-55.803c-34.424-34.423-55.802-82.023-55.802-134.465v-357.475
		c0-52.173,21.381-99.638,55.802-134.062l0.404-0.404c34.424-34.423,81.89-55.87,134.13-55.87H2248.864z M2590.741,4255.255
		h-326.347v326.28h326.347V4255.255z"/>
	<path style="fill-rule:evenodd;clip-rule:evenodd;fill:#FFFFFF;" d="M3321.153,4152.323h357.475
		c48.071,0,87.336,39.263,87.336,87.335v357.475c0,48.004-39.263,87.335-87.336,87.335h-357.475
		c-48.071,0-87.336-39.331-87.336-87.335v-357.475C3233.816,4191.586,3273.079,4152.323,3321.153,4152.323z"/>
	<path d="M3321.153,4049.323h357.475c52.44,0,100.041,21.447,134.465,55.87c34.424,34.423,55.802,82.023,55.802,134.465v357.475
		c0,51.971-21.381,99.438-55.802,134.062l-0.404,0.404c-34.624,34.423-82.091,55.803-134.061,55.803h-357.475
		c-52.44,0-100.041-21.38-134.465-55.803c-34.424-34.423-55.871-82.023-55.871-134.465v-357.475
		c0-52.173,21.447-99.638,55.871-134.062l0.404-0.404C3221.516,4070.77,3268.982,4049.323,3321.153,4049.323z M3663.031,4255.255
		h-326.278v326.28h326.278V4255.255z"/>
	<path style="fill-rule:evenodd;clip-rule:evenodd;fill:#FFFFFF;" d="M4393.511,4152.323h357.409
		c48.07,0,87.402,39.263,87.402,87.335v357.475c0,48.004-39.332,87.335-87.402,87.335h-357.409
		c-48.07,0-87.402-39.331-87.402-87.335v-357.475C4306.109,4191.586,4345.441,4152.323,4393.511,4152.323z"/>
	<path d="M4393.511,4049.323h357.409c52.44,0,100.041,21.447,134.531,55.87c34.424,34.423,55.801,82.023,55.801,134.465v357.475
		c0,51.971-21.381,99.438-55.801,134.062l-0.404,0.404c-34.693,34.423-82.16,55.803-134.13,55.803h-357.409
		c-52.44,0-100.041-21.38-134.53-55.803c-34.424-34.423-55.802-82.023-55.802-134.465v-357.475
		c0-52.173,21.381-99.638,55.802-134.062l0.404-0.404C4293.871,4070.77,4341.337,4049.323,4393.511,4049.323z M4735.389,4255.255
		h-326.347v326.28h326.347V4255.255z"/>
	<path d="M2480.95,1654.098h2037.883c59.029,0,112.615,24.069,151.474,62.862c38.793,38.793,62.863,92.377,62.863,151.408v165.392
		c0,59.03-24.07,112.614-62.863,151.408c-38.859,38.793-92.445,62.862-151.474,62.862H2480.95
		c-59.029,0-112.68-24.069-151.473-62.862c-38.793-38.793-62.863-92.377-62.863-151.408v-165.392
		c0-59.03,24.07-112.614,62.863-151.408C2368.27,1678.167,2421.921,1654.098,2480.95,1654.098z M4518.833,1838.18H2480.95
		c-8.27,0-15.8,3.429-21.312,8.942c-5.512,5.513-8.942,13.043-8.942,21.245v165.392c0,8.202,3.427,15.733,8.942,21.245
		c5.512,5.58,13.043,9.009,21.312,9.009h2037.883c8.204,0,15.8-3.429,21.313-9.009c5.512-5.513,8.942-13.043,8.942-21.245v-165.392
		c0-8.202-3.427-15.733-8.942-21.245C4534.634,1841.609,4527.034,1838.18,4518.833,1838.18z"/>
	<path style="fill-rule:evenodd;clip-rule:evenodd;fill:#0287D0;" d="M1588.37,5304.89c0,56.004,22.993,107.035,60.04,144.08
		c37.044,37.045,88.075,60.039,144.08,60.039h3414.738c56.071,0,107.034-22.994,144.081-60.039
		c37.043-37.045,60.105-88.074,60.105-144.08V2616.666H1588.373v173.46c0.2,2.555,0.269,5.042,0.269,7.665
		c0,57.08-46.255,103.336-103.337,103.336c-4.304,0-8.47-0.202-12.573-0.74v171.846c4.1-0.471,8.27-0.74,12.573-0.74
		c57.082,0,103.337,46.256,103.337,103.404c0,2.555-0.066,5.11-0.269,7.597v538.801c0.2,2.488,0.269,5.042,0.269,7.597
		c0,57.147-46.255,103.404-103.337,103.404c-4.304,0-8.47-0.269-12.573-0.74v684.427c4.1-0.47,8.27-0.739,12.573-0.739
		c57.082,0,103.337,46.256,103.337,103.404c0,2.555-0.066,5.109-0.269,7.597v678.646L1588.37,5304.89z M2114.33,3810.177
		c-34.424-34.423-55.802-82.024-55.802-134.465v-357.475c0-52.172,21.381-99.639,55.802-134.062l0.404-0.404
		c34.424-34.423,81.89-55.803,134.13-55.803h357.409c52.44,0,100.041,21.38,134.465,55.803
		c34.49,34.423,55.871,82.024,55.871,134.465v357.475c0,51.971-21.381,99.437-55.871,134.062l-0.404,0.404
		c-34.624,34.49-82.091,55.803-134.061,55.803h-357.409c-52.44,0-100.11-21.38-134.531-55.803H2114.33z M4393.511,4049.323h357.409
		c52.44,0,100.041,21.447,134.531,55.871c34.424,34.423,55.801,82.023,55.801,134.465v357.476
		c0,51.971-21.381,99.437-55.801,134.062l-0.404,0.403c-34.693,34.423-82.16,55.804-134.13,55.804h-357.409
		c-52.44,0-100.041-21.38-134.53-55.804c-34.424-34.423-55.802-82.023-55.802-134.465v-357.476
		c0-52.172,21.381-99.638,55.802-134.061l0.404-0.404C4293.871,4070.771,4341.337,4049.324,4393.511,4049.323L4393.511,4049.323z
		 M3321.153,4049.323h357.475c52.44,0,100.041,21.447,134.465,55.871c34.424,34.423,55.802,82.023,55.802,134.465v357.476
		c0,51.971-21.381,99.437-55.802,134.062l-0.404,0.403c-34.624,34.423-82.091,55.804-134.061,55.804h-357.475
		c-52.44,0-100.041-21.38-134.465-55.804c-34.424-34.423-55.871-82.023-55.871-134.465v-357.476
		c0-52.172,21.447-99.638,55.871-134.061l0.404-0.404C3221.516,4070.771,3268.982,4049.324,3321.153,4049.323L3321.153,4049.323z
		 M2248.86,4049.323h357.409c52.44,0,100.041,21.447,134.465,55.871c34.49,34.423,55.871,82.023,55.871,134.465v357.476
		c0,51.971-21.381,99.437-55.871,134.062l-0.404,0.403c-34.624,34.423-82.091,55.804-134.061,55.804H2248.86
		c-52.44,0-100.11-21.38-134.531-55.804c-34.424-34.423-55.802-82.023-55.802-134.465v-357.476
		c0-52.172,21.381-99.638,55.802-134.061l0.404-0.404c34.424-34.423,81.89-55.87,134.13-55.87L2248.86,4049.323z M3130.817,3675.712
		v-357.475c0-52.172,21.447-99.639,55.871-134.062l0.404-0.404c34.424-34.423,81.89-55.803,134.061-55.803h357.475
		c52.44,0,100.041,21.38,134.465,55.803c34.424,34.423,55.802,82.024,55.802,134.465v357.475c0,51.971-21.381,99.437-55.802,134.062
		l-0.404,0.404c-34.624,34.49-82.091,55.803-134.061,55.803h-357.475c-52.44,0-100.041-21.38-134.465-55.803
		C3152.264,3775.754,3130.817,3728.153,3130.817,3675.712z M4259.381,3183.772c34.489-34.423,81.956-55.803,134.13-55.803h357.409
		c52.44,0,100.041,21.38,134.531,55.803c34.424,34.423,55.801,82.024,55.801,134.465v357.475c0,51.971-21.381,99.437-55.801,134.062
		l-0.404,0.404c-34.693,34.49-82.16,55.803-134.13,55.803h-357.409c-52.44,0-100.041-21.38-134.53-55.803
		c-34.424-34.423-55.802-82.024-55.802-134.465v-357.475c0-52.172,21.381-99.639,55.802-134.062L4259.381,3183.772z"/>
	<path style="fill-rule:evenodd;clip-rule:evenodd;fill:#0287D0;" d="M1588.37,1695.513V2410.8h3823.041v-715.287
		c0-56.005-23.062-107.034-60.105-144.079s-88.006-60.039-144.08-60.039H1792.487c-56.005,0-107.034,22.993-144.08,60.039
		c-37.043,37.045-60.04,88.074-60.04,144.079H1588.37z M2266.61,2033.76v-165.392c0-59.03,24.07-112.615,62.863-151.408
		c38.793-38.793,92.445-62.862,151.473-62.862h2037.884c59.028,0,112.614,24.069,151.473,62.862
		c38.793,38.793,62.863,92.377,62.863,151.408v165.392c0,59.03-24.07,112.615-62.863,151.408
		c-38.859,38.793-92.445,62.862-151.473,62.862H2480.947c-59.029,0-112.68-24.069-151.473-62.862
		C2290.68,2146.374,2266.61,2092.79,2266.61,2033.76z"/>
	<path style="fill-rule:evenodd;clip-rule:evenodd;fill:#39D5FF;" d="M1792.487,1623.574h3414.738
		c56.071,0,107.033,22.993,144.08,60.039c37.043,37.045,60.105,88.074,60.105,144.079v-132.179
		c0-56.005-23.062-107.034-60.105-144.079s-88.006-60.039-144.08-60.039H1792.487c-56.005,0-107.034,22.993-144.08,60.039
		c-37.043,37.045-60.04,88.074-60.04,144.079v132.179c0-56.005,22.993-107.034,60.04-144.079
		C1685.45,1646.568,1736.482,1623.574,1792.487,1623.574z"/>
	<path style="fill-rule:evenodd;clip-rule:evenodd;fill:#FFFFFF;" d="M4518.833,1838.18H2480.95c-8.27,0-15.8,3.429-21.312,8.942
		c-5.512,5.513-8.942,13.043-8.942,21.245v165.392c0,8.202,3.427,15.733,8.942,21.245c5.512,5.58,13.043,9.009,21.312,9.009
		h2037.883c8.204,0,15.8-3.429,21.313-9.009c5.512-5.513,8.942-13.043,8.942-21.245v-165.392c0-8.202-3.427-15.733-8.942-21.245
		C4534.634,1841.609,4527.034,1838.18,4518.833,1838.18z"/>
	<polygon style="fill-rule:evenodd;clip-rule:evenodd;fill:#FFFFFF;" points="2590.738,3660.114 2590.738,3333.835 
		2264.391,3333.835 2264.391,3660.114 	"/>
	<polygon style="fill-rule:evenodd;clip-rule:evenodd;fill:#FFFFFF;" points="3336.75,3333.835 3336.75,3660.114 3663.031,3660.114 
		3663.031,3333.835 	"/>
	<polygon style="fill-rule:evenodd;clip-rule:evenodd;fill:#FFFFFF;" points="3663.031,4255.256 3336.75,4255.256 3336.75,4581.535 
		3663.031,4581.535 	"/>
	<polygon style="fill-rule:evenodd;clip-rule:evenodd;fill:#FFFFFF;" points="2590.738,4581.535 2590.738,4255.256 
		2264.391,4255.256 2264.391,4581.535 	"/>
	<polygon style="fill-rule:evenodd;clip-rule:evenodd;fill:#FFFFFF;" points="4409.042,4255.256 4409.042,4581.535 
		4735.389,4581.535 4735.389,4255.256 	"/>
	<polygon style="fill-rule:evenodd;clip-rule:evenodd;fill:#FFFFFF;" points="4409.042,3660.114 4735.389,3660.114 
		4735.389,3333.835 4409.042,3333.835 	"/>
</g>
</svg>
